Coordinates
version=1
nRows=10
nColumns=34
inDegrees=yes

Units are S.I. units (second, meters, Newtons, ...)
If the header above contains a line with 'inDegrees', this indicates whether rotational values are in degrees (yes) or radians (no).

endheader
time	pelvis_tilt	pelvis_list	pelvis_rotation	pelvis_tx	pelvis_ty	pelvis_tz	hip_flexion_r	hip_adduction_r	hip_rotation_r	knee_angle_r	ankle_angle_r	subtalar_angle_r	mtp_angle_r	hip_flexion_l	hip_adduction_l	hip_rotation_l	knee_angle_l	ankle_angle_l	subtalar_angle_l	mtp_angle_l	lumbar_extension	lumbar_bending	lumbar_rotation	arm_flex_r	arm_add_r	arm_rot_r	elbow_flex_r	pro_sup_r	arm_flex_l	arm_add_l	arm_rot_l	elbow_flex_l	pro_sup_l
      4.81666670	      1.79373287	     -3.56287595	      6.15833074	    -10.15046390	      0.90332277	      0.48312162	     38.73952806	      1.06721375	     -4.15135820	    100.43955443	      2.46511044	    -16.63274392	      0.00000000	     -3.32075913	      3.34294835	      8.81812613	     42.51440996	     27.44249523	     -5.60359685	      0.00000000	    -24.50418669	     -0.07826707	     -6.96846200	   -295.16858792	    -10.06343543	     11.33401896	    150.00035077	    118.29067934	   -315.79618736	    -14.31091634	     -0.63063206	     52.97849676	     88.32056926
      4.83333330	      1.98813546	     -4.62856156	      6.19977867	    -10.13153099	      0.90583364	      0.48035377	     42.17492949	      1.67836445	     -5.29096243	    100.98391060	      0.47817688	    -18.07966413	      0.00000000	     -5.46549215	      1.85086139	      8.10024717	     40.44261657	     24.31686290	     -6.13202134	      0.00000000	    -25.53019497	      1.41834738	     -7.17655646	   -294.24848674	    -10.44835495	     11.61990266	    150.00035077	    117.73126885	   -312.69032039	    -14.83837559	      2.79431949	     52.94193411	     87.58597009
      4.85000000	      1.92216170	     -5.56191503	      6.65057458	    -10.11073382	      0.91208905	      0.47667564	     45.54301477	      1.79771161	     -6.68380143	    101.04431111	     -2.95173196	    -19.64345147	      0.00000000	     -7.39880823	      0.45573417	      7.76070726	     37.81709538	     19.06511698	     -6.64383945	      0.00000000	    -26.05189951	      3.01613435	     -7.55162123	   -293.63682514	    -10.57233653	     12.08200724	    150.00035077	    117.39963105	   -310.24749344	    -14.64679109	      4.39832151	     52.62793576	     87.35155863
      4.86666670	      1.35137239	     -6.08079863	      7.47157372	    -10.09340966	      0.91862556	      0.47294244	     49.61162694	      1.13214737	     -8.13187638	    100.46620141	     -6.19994672	    -21.13145152	      0.00000000	     -8.81976593	     -0.43593619	      8.10024900	     34.85805050	     12.02295528	     -7.98815420	      0.00000000	    -26.00642567	      4.17597724	     -8.11368194	   -293.25980510	    -11.28556731	     12.56028191	    150.00035077	    116.37454358	   -306.78261262	    -15.03624093	      8.99283668	     50.50385261	     87.17008174
      4.88333330	      0.41559703	     -6.41797136	      8.66773893	    -10.07852824	      0.92845372	      0.46923273	     53.83126791	      0.17653265	     -9.54739767	     98.09059277	     -8.72892879	    -22.46113932	      0.00000000	    -10.09342997	     -1.20120455	      8.73034684	     31.40535352	      5.01006898	     -9.20411690	      0.00000000	    -25.82835487	      5.07701887	     -9.05756237	   -293.91629177	    -11.99024698	     12.29575799	    150.00035077	    115.32513033	   -303.37695902	    -15.26920146	     13.33067008	     48.12204852	     87.32686030
      4.90000000	     -0.70412076	     -7.09466802	      9.94112866	    -10.05487166	      0.93320612	      0.46436930	     57.17686875	     -0.29425827	    -10.97721723	     93.76688341	     -9.54194621	    -23.15814882	      0.00000000	    -11.15260131	     -2.43709330	      8.96011788	     28.70302264	     -0.35613777	     -9.46280925	      0.00000000	    -25.13738295	      6.47997862	    -10.19023995	   -294.91203947	    -12.57072936	     12.04955103	    150.00035077	    114.73675155	   -301.71204226	    -15.63321320	     16.10884035	     47.60068547	     87.58838654
      4.91666670	     -1.62728373	     -8.35884673	     10.80973245	    -10.01430346	      0.93757375	      0.45675171	     58.34090322	      0.24471265	    -12.54518990	     88.43171708	     -9.27999999	    -22.94841226	      0.00000000	    -12.80836743	     -4.30229222	      8.36309300	     26.24113180	     -3.90251519	     -7.94463085	      0.00000000	    -23.71607416	      8.57624328	    -11.09278277	   -296.81824325	    -13.39040109	     12.15196376	    150.00035077	    114.66764754	   -302.71494114	    -15.56210517	     16.71450693	     47.90683437	     87.64395800
      4.93333330	     -2.39141256	    -10.19165876	     10.74467419	     -9.96518869	      0.94378340	      0.44783406	     57.32073551	      2.19324426	    -14.01452408	     82.79342322	     -9.35107575	    -23.53562930	      0.00000000	    -14.78775593	     -6.49480160	      6.96706294	     24.09445735	     -5.79976262	     -5.72228125	      0.00000000	    -21.90147842	     11.44582784	    -11.77942991	   -299.02964963	    -14.14293223	     13.48867931	    150.00035077	    114.62199497	   -306.86118607	    -16.01771390	     15.52003140	     51.43394512	     87.43437532
      4.95000000	     -3.16937581	    -11.85460519	      9.96459279	     -9.92455058	      0.94870763	      0.43997190	     55.18474773	      4.42004442	    -15.08470616	     78.09331298	    -10.17576952	    -24.52360686	      0.00000000	    -16.34252585	     -8.10145591	      5.43305504	     22.47234830	     -6.70897914	     -3.63552929	      0.00000000	    -19.88888671	     14.01613644	    -11.88586675	   -301.26161953	    -15.10966838	     14.75596251	    150.00035077	    114.90747102	   -311.40893210	    -14.91870109	     12.07887876	     52.94333525	     87.01028963
      4.96666670	     -3.66655403	    -12.57724039	      9.03900370	     -9.89793375	      0.94991883	      0.43493206	     52.18842920	      6.18759607	    -15.23420852	     74.16251908	    -10.71674452	    -25.52843021	      0.00000000	    -17.22250219	     -8.51255876	      4.63134779	     22.07634886	     -6.29465276	     -2.22326988	      0.00000000	    -18.57467839	     15.44549078	    -11.43118177	   -302.42180924	    -15.98892394	     15.34788250	    150.00035077	    115.25251215	   -314.68151062	    -13.46495267	      9.20928715	     53.59674575	     86.82927223
